<svg width="25" height="31" viewBox="0 0 25 31" fill="none" xmlns="http://www.w3.org/2000/svg">
<path d="M1.30303 26.3895C0.722745 25.855 0.682075 24.9551 1.21219 24.3797L22.3289 1.45711C22.859 0.881665 23.7592 0.848524 24.3395 1.38309C24.9197 1.91766 24.9604 2.8175 24.4303 3.39294L3.31357 26.3155C2.78346 26.891 1.88331 26.9241 1.30303 26.3895Z" fill="#159A9C"/>
<path d="M24.3875 25.9311C23.8136 26.4725 22.9131 26.45 22.3762 25.8808L0.990292 3.20921C0.453423 2.64007 0.483464 1.7398 1.05739 1.19842C1.63132 0.657043 2.5318 0.679553 3.06867 1.2487L24.4546 23.9203C24.9915 24.4895 24.9614 25.3897 24.3875 25.9311Z" fill="#159A9C"/>
</svg>
