<svg width="32" height="18" viewBox="0 0 32 18" fill="none" xmlns="http://www.w3.org/2000/svg">
<path d="M0.000244141 1.28571C0.000244141 0.575634 0.597191 0 1.33356 0H30.6666C31.4029 0 31.9999 0.575634 31.9999 1.28571C31.9999 1.99579 31.4029 2.57143 30.6666 2.57143H1.33356C0.597192 2.57143 0.000244141 1.99579 0.000244141 1.28571Z" fill="#159A9C"/>
<path d="M0 9.00001C0 8.28993 0.596947 7.71429 1.33332 7.71429H30.6663C31.4027 7.71429 31.9996 8.28993 31.9996 9.00001C31.9996 9.71009 31.4027 10.2857 30.6663 10.2857H1.33332C0.596948 10.2857 0 9.71009 0 9.00001Z" fill="#159A9C"/>
<path d="M0 16.7143C0 16.0042 0.596947 15.4286 1.33332 15.4286H30.6663C31.4027 15.4286 31.9996 16.0042 31.9996 16.7143C31.9996 17.4244 31.4027 18 30.6663 18H1.33332C0.596948 18 0 17.4244 0 16.7143Z" fill="#159A9C"/>
</svg>
