<svg width="25" height="25" viewBox="0 0 25 25" fill="none" xmlns="http://www.w3.org/2000/svg">
<path fill-rule="evenodd" clip-rule="evenodd" d="M21.4618 0.286621C23.3083 0.286621 24.8052 1.78352 24.8052 3.63004V21.4616C24.8052 23.3081 23.3083 24.805 21.4618 24.805H3.63028C1.78376 24.805 0.286865 23.3081 0.286865 21.4616V3.63004C0.286865 1.78352 1.78376 0.286621 3.63028 0.286621H21.4618ZM21.4618 2.51556C22.0773 2.51556 22.5763 3.01453 22.5763 3.63004V21.4616C22.5763 22.0771 22.0773 22.5761 21.4618 22.5761H15.8895V14.7747H18.2033C18.683 14.7747 19.1089 14.4677 19.2606 14.0126L19.7543 12.5314C19.9347 11.9902 19.5319 11.4312 18.9614 11.4312H15.8895V9.2023C15.8895 8.64507 16.4467 8.08783 17.0039 8.08783H19.2329C19.8484 8.08783 20.3474 7.58887 20.3474 6.97336V6.20885C20.3474 5.84885 20.1174 5.52608 19.7693 5.43422C18.3085 5.0487 17.0039 5.0487 17.0039 5.0487C14.2178 5.0487 12.5461 6.97336 12.5461 8.64507V11.4312H10.3171C9.70161 11.4312 9.20264 11.9302 9.20264 12.5457V13.6602C9.20264 14.2757 9.70161 14.7747 10.3171 14.7747H12.5461V22.5761H3.63028C3.01478 22.5761 2.51581 22.0771 2.51581 21.4616V3.63004C2.51581 3.01453 3.01478 2.51556 3.63028 2.51556H21.4618Z" fill="white"/>
</svg>
