<svg width="26" height="25" viewBox="0 0 26 25" fill="none" xmlns="http://www.w3.org/2000/svg">
<path fill-rule="evenodd" clip-rule="evenodd" d="M13.1818 19.3758C16.8748 19.3758 19.8686 16.4587 19.8686 12.8604C19.8686 9.26204 16.8748 6.34501 13.1818 6.34501C9.48876 6.34501 6.49497 9.26204 6.49497 12.8604C6.49497 16.4587 9.48876 19.3758 13.1818 19.3758ZM13.1818 17.204C15.6438 17.204 17.6397 15.2593 17.6397 12.8604C17.6397 10.4615 15.6438 8.5168 13.1818 8.5168C10.7198 8.5168 8.72391 10.4615 8.72391 12.8604C8.72391 15.2593 10.7198 17.204 13.1818 17.204Z" fill="white"/>
<path d="M19.8686 5.25911C19.2531 5.25911 18.7542 5.74528 18.7542 6.34501C18.7542 6.94473 19.2531 7.4309 19.8686 7.4309C20.4841 7.4309 20.9831 6.94473 20.9831 6.34501C20.9831 5.74528 20.4841 5.25911 19.8686 5.25911Z" fill="white"/>
<path fill-rule="evenodd" clip-rule="evenodd" d="M1.65143 4.47298C0.922607 5.8667 0.922607 7.69117 0.922607 11.3401V14.3806C0.922607 18.0296 0.922607 19.8541 1.65143 21.2478C2.29252 22.4737 3.31547 23.4704 4.57368 24.0951C6.00407 24.8052 7.87656 24.8052 11.6215 24.8052H14.7421C18.487 24.8052 20.3595 24.8052 21.7899 24.0951C23.0481 23.4704 24.0711 22.4737 24.7122 21.2478C25.441 19.8541 25.441 18.0296 25.441 14.3806V11.3401C25.441 7.69117 25.441 5.8667 24.7122 4.47298C24.0711 3.24704 23.0481 2.25031 21.7899 1.62566C20.3595 0.915527 18.487 0.915527 14.7421 0.915527H11.6215C7.87656 0.915527 6.00407 0.915527 4.57368 1.62566C3.31547 2.25031 2.29252 3.24704 1.65143 4.47298ZM14.7421 3.08732H11.6215C9.71227 3.08732 8.41437 3.08901 7.41115 3.16887C6.43394 3.24667 5.93421 3.38767 5.5856 3.56074C4.74679 3.97717 4.06482 4.64166 3.63743 5.45896C3.45981 5.79862 3.31509 6.28555 3.23525 7.23769C3.15328 8.21519 3.15155 9.47981 3.15155 11.3401V14.3806C3.15155 16.2409 3.15328 17.5056 3.23525 18.4831C3.31509 19.4352 3.45981 19.9221 3.63743 20.2618C4.06482 21.0791 4.74679 21.7436 5.5856 22.16C5.93421 22.3331 6.43394 22.4741 7.41115 22.5519C8.41437 22.6318 9.71227 22.6334 11.6215 22.6334H14.7421C16.6513 22.6334 17.9492 22.6318 18.9524 22.5519C19.9297 22.4741 20.4294 22.3331 20.778 22.16C21.6168 21.7436 22.2988 21.0791 22.7262 20.2618C22.9038 19.9221 23.0485 19.4352 23.1283 18.4831C23.2103 17.5056 23.212 16.2409 23.212 14.3806V11.3401C23.212 9.47981 23.2103 8.21519 23.1283 7.23769C23.0485 6.28555 22.9038 5.79862 22.7262 5.45896C22.2988 4.64166 21.6168 3.97717 20.778 3.56074C20.4294 3.38767 19.9297 3.24667 18.9524 3.16887C17.9492 3.08901 16.6513 3.08732 14.7421 3.08732Z" fill="white"/>
</svg>
