<svg width="130" height="127" viewBox="0 0 130 127" fill="none" xmlns="http://www.w3.org/2000/svg">
<path d="M1 90.2626L1 82.1818C1 80.0119 1.86174 77.9308 3.39564 76.3964C4.92955 74.862 7.00997 74 9.17924 74H120.821C122.99 74 125.07 74.862 126.604 76.3964C128.138 77.9308 129 80.0119 129 82.1818V92" stroke="#159A9C" stroke-width="2" stroke-miterlimit="10" stroke-linecap="round"/>
<path d="M129 113.184V117.811C128.973 119.992 128.1 122.075 126.569 123.608C125.038 125.141 122.973 126 120.821 126H9.17924C7.02735 126 4.96209 125.141 3.43105 123.608C1.90002 122.075 1.02657 119.992 1 117.811L1 100" stroke="#159A9C" stroke-width="2" stroke-miterlimit="10" stroke-linecap="round"/>
<path d="M129 101V109" stroke="#159A9C" stroke-width="2" stroke-miterlimit="10" stroke-linecap="round"/>
<path d="M115 26V33" stroke="#159A9C" stroke-width="2" stroke-miterlimit="10" stroke-linecap="round"/>
<path d="M43 1.00002L107.753 1.00002C108.835 0.997384 109.907 1.20579 110.908 1.6133C111.908 2.02082 112.817 2.61944 113.583 3.37487C114.349 4.13031 114.957 5.02773 115.372 6.01572C115.787 7.00371 116 8.06288 116 9.13255V21" stroke="#159A9C" stroke-width="2" stroke-miterlimit="10" stroke-linecap="round"/>
<path d="M30 1L36 1" stroke="#159A9C" stroke-width="2" stroke-miterlimit="10" stroke-linecap="round"/>
<path d="M117 44.3972V74H15L15 9.23999C15 8.15619 15.2134 7.08303 15.6281 6.08199C16.0427 5.08094 16.6505 4.17167 17.4165 3.40625C18.1824 2.64083 19.0917 2.0343 20.092 1.62141C21.0923 1.20851 22.1642 0.997349 23.2461 1.00003" stroke="#159A9C" stroke-width="2" stroke-miterlimit="10" stroke-linecap="round"/>
<path d="M101.73 8L29.2702 8C25.8072 8 23 10.8307 23 14.3225V59.6775C23 63.1693 25.8072 66 29.2702 66H101.73C105.193 66 108 63.1693 108 59.6775V14.3225C108 10.8307 105.193 8 101.73 8Z" stroke="#159A9C" stroke-width="2" stroke-miterlimit="10" stroke-linecap="round"/>
<path d="M15 122V126" stroke="#159A9C" stroke-width="2" stroke-miterlimit="10" stroke-linecap="round"/>
<path d="M15 99V114" stroke="#159A9C" stroke-width="2" stroke-miterlimit="10" stroke-linecap="round"/>
<path d="M22 107V126" stroke="#159A9C" stroke-width="2" stroke-miterlimit="10" stroke-linecap="round"/>
<path d="M22 99V102" stroke="#159A9C" stroke-width="2" stroke-miterlimit="10" stroke-linecap="round"/>
<path d="M30 115V126" stroke="#159A9C" stroke-width="2" stroke-miterlimit="10" stroke-linecap="round"/>
<path d="M30 99V109" stroke="#159A9C" stroke-width="2" stroke-miterlimit="10" stroke-linecap="round"/>
<path d="M38 122V126" stroke="#159A9C" stroke-width="2" stroke-miterlimit="10" stroke-linecap="round"/>
<path d="M38 99V114" stroke="#159A9C" stroke-width="2" stroke-miterlimit="10" stroke-linecap="round"/>
<path d="M19 91C21.2091 91 23 89.2091 23 87C23 84.7909 21.2091 83 19 83C16.7909 83 15 84.7909 15 87C15 89.2091 16.7909 91 19 91Z" stroke="#159A9C" stroke-width="2" stroke-miterlimit="10" stroke-linecap="round"/>
<path d="M82 99H116" stroke="#159A9C" stroke-width="2" stroke-miterlimit="10" stroke-linecap="round"/>
<path d="M110 107H116" stroke="#159A9C" stroke-width="2" stroke-miterlimit="10" stroke-linecap="round"/>
<path d="M82 107H104" stroke="#159A9C" stroke-width="2" stroke-miterlimit="10" stroke-linecap="round"/>
<path d="M69 19H79" stroke="#159A9C" stroke-width="2" stroke-miterlimit="10" stroke-linecap="round"/>
<path d="M30 19H61" stroke="#159A9C" stroke-width="2" stroke-miterlimit="10" stroke-linecap="round"/>
<path d="M51 26H78" stroke="#159A9C" stroke-width="2" stroke-miterlimit="10" stroke-linecap="round"/>
<path d="M30 26H43" stroke="#159A9C" stroke-width="2" stroke-miterlimit="10" stroke-linecap="round"/>
<path d="M30 33H69" stroke="#159A9C" stroke-width="2" stroke-miterlimit="10" stroke-linecap="round"/>
<path d="M30 40H56" stroke="#159A9C" stroke-width="2" stroke-miterlimit="10" stroke-linecap="round"/>
</svg>
