<svg width="120" height="117" viewBox="0 0 120 117" fill="none" xmlns="http://www.w3.org/2000/svg">
<path d="M108 45V57" stroke="#159A9C" stroke-miterlimit="10" stroke-linecap="round"/>
<path d="M108 30V37" stroke="#159A9C" stroke-miterlimit="10" stroke-linecap="round"/>
<path d="M31 4L100.172 4C102.248 4 104.239 4.763 105.707 6.12114C107.175 7.47929 108 9.32133 108 11.242V28" stroke="#159A9C" stroke-miterlimit="10" stroke-linecap="round"/>
<path d="M11 11C10.9972 10.0801 11.2041 9.16873 11.6088 8.31835C12.0134 7.46798 12.6079 6.69534 13.358 6.04485C14.1081 5.39436 14.999 4.87884 15.9796 4.52792C16.9602 4.17699 18.0111 3.99759 19.0719 4.00002H24" stroke="#159A9C" stroke-miterlimit="10" stroke-linecap="round"/>
<path d="M11 57V17" stroke="#159A9C" stroke-miterlimit="10" stroke-linecap="round"/>
<path d="M41 4C41 3.20435 41.3384 2.44129 41.9409 1.87868C42.5433 1.31607 43.3604 1 44.2124 1L77.7876 1C78.6396 1 79.4567 1.31607 80.0591 1.87868C80.6615 2.44129 81 3.20435 81 4" stroke="#159A9C" stroke-miterlimit="10" stroke-linecap="round"/>
<path d="M41 93C41 92.2044 41.3384 91.4413 41.9409 90.8787C42.5433 90.3161 43.3604 90 44.2124 90H77.7876C78.6396 90 79.4567 90.3161 80.0591 90.8787C80.6615 91.4413 81 92.2044 81 93" stroke="#159A9C" stroke-miterlimit="10" stroke-linecap="round"/>
<path d="M45 96H44.0097C43.2115 96 42.446 95.6839 41.8815 95.1213C41.3171 94.5587 41 93.7956 41 93" stroke="#159A9C" stroke-miterlimit="10" stroke-linecap="round"/>
<path d="M80 93C80 93.7956 79.6734 94.5587 79.092 95.1213C78.5107 95.6839 77.7222 96 76.9 96H76" stroke="#159A9C" stroke-miterlimit="10" stroke-linecap="round"/>
<path d="M45 107H7.01674C5.421 107 3.89062 106.417 2.76226 105.38C1.63391 104.342 1 102.935 1 101.468V79" stroke="#159A9C" stroke-miterlimit="10" stroke-linecap="round"/>
<path d="M88 106H76" stroke="#159A9C" stroke-miterlimit="10" stroke-linecap="round"/>
<path d="M119 79V101.468C119 102.935 118.355 104.342 117.208 105.38C116.06 106.417 114.503 107 112.88 107H95" stroke="#159A9C" stroke-miterlimit="10" stroke-linecap="round"/>
<path d="M78 57H85" stroke="#159A9C" stroke-miterlimit="10" stroke-linecap="round"/>
<path d="M41 57H75" stroke="#159A9C" stroke-miterlimit="10" stroke-linecap="round"/>
<path d="M18.0417 80H3.00202C2.67088 79.9954 2.34596 79.9158 2.05554 79.7682C1.76512 79.6205 1.518 79.4093 1.33569 79.1528C1.15337 78.8963 1.04138 78.6024 1.00946 78.2967C0.977543 77.9909 1.02666 77.6825 1.15255 77.3984L9.91212 58.15C10.0663 57.8122 10.3235 57.5234 10.652 57.3192C10.9805 57.1149 11.3661 57.004 11.7616 57H33" stroke="#159A9C" stroke-miterlimit="10" stroke-linecap="round"/>
<path d="M101 80H25" stroke="#159A9C" stroke-miterlimit="10" stroke-linecap="round"/>
<path d="M94 57H106.606C106.991 57.0028 107.367 57.1031 107.692 57.2895C108.018 57.476 108.28 57.7413 108.449 58.0557L118.799 77.3041C118.948 77.5896 119.016 77.9048 118.997 78.2205C118.977 78.5363 118.871 78.8426 118.687 79.1111C118.504 79.3796 118.249 79.6017 117.947 79.7571C117.644 79.9124 117.304 79.996 116.956 80H107.89" stroke="#159A9C" stroke-miterlimit="10" stroke-linecap="round"/>
<path d="M61 48C72.0457 48 81 40.165 81 30.5C81 20.835 72.0457 13 61 13C49.9543 13 41 20.835 41 30.5C41 40.165 49.9543 48 61 48Z" stroke="#159A9C" stroke-linecap="round" stroke-linejoin="round"/>
<path d="M61 38C65.9706 38 70 34.4183 70 30C70 25.5817 65.9706 22 61 22C56.0294 22 52 25.5817 52 30C52 34.4183 56.0294 38 61 38Z" stroke="#159A9C" stroke-linecap="round" stroke-linejoin="round"/>
<path d="M61 17C64.713 17 68.274 18.3696 70.8995 20.8076C73.525 23.2456 75 26.5522 75 30" stroke="#159A9C" stroke-linecap="round" stroke-linejoin="round"/>
<path d="M61 43C57.287 43 53.726 41.6304 51.1005 39.1924C48.475 36.7544 47 33.4478 47 30" stroke="#159A9C" stroke-linecap="round" stroke-linejoin="round"/>
<path d="M18 19H31" stroke="#159A9C" stroke-linecap="round" stroke-linejoin="round"/>
<path d="M18 25H31" stroke="#159A9C" stroke-linecap="round" stroke-linejoin="round"/>
<path d="M28 30H30" stroke="#159A9C" stroke-linecap="round" stroke-linejoin="round"/>
<path d="M18 30H25" stroke="#159A9C" stroke-linecap="round" stroke-linejoin="round"/>
<path d="M98 30H100" stroke="#159A9C" stroke-linecap="round" stroke-linejoin="round"/>
<path d="M88 30H95" stroke="#159A9C" stroke-linecap="round" stroke-linejoin="round"/>
<path d="M101 19H88V25H101V19Z" stroke="#159A9C" stroke-linecap="round" stroke-linejoin="round"/>
<path d="M76 90V116H45V90" stroke="#159A9C" stroke-miterlimit="10" stroke-linecap="round"/>
<path d="M54 57V80" stroke="#159A9C" stroke-miterlimit="10" stroke-linecap="round"/>
<path d="M59 57V80" stroke="#159A9C" stroke-miterlimit="10" stroke-linecap="round"/>
<path d="M63 57V80" stroke="#159A9C" stroke-miterlimit="10" stroke-linecap="round"/>
<path d="M68 57V80" stroke="#159A9C" stroke-miterlimit="10" stroke-linecap="round"/>
</svg>
