<svg width="124" height="121" viewBox="0 0 124 121" fill="none" xmlns="http://www.w3.org/2000/svg">
<path d="M57 51H68" stroke="#159A9C" stroke-width="2" stroke-miterlimit="10" stroke-linecap="round"/>
<path d="M69 120H23.1587C20.4775 120.006 17.9032 118.942 15.9994 117.041C14.0955 115.14 13.0171 112.558 13.0002 109.858V61.1486C12.9961 60.4269 13.0676 59.7067 13.2136 59" stroke="#159A9C" stroke-width="2" stroke-miterlimit="10" stroke-linecap="round"/>
<path d="M80 120H76" stroke="#159A9C" stroke-width="2" stroke-miterlimit="10" stroke-linecap="round"/>
<path d="M100 94V109.86C99.962 112.544 98.9138 115.107 97.079 117.002C95.2443 118.896 92.7682 119.972 90.1791 120H86" stroke="#159A9C" stroke-width="2" stroke-miterlimit="10" stroke-linecap="round"/>
<path d="M101 83V89" stroke="#159A9C" stroke-width="2" stroke-miterlimit="10" stroke-linecap="round"/>
<path d="M101 64V80" stroke="#159A9C" stroke-width="2" stroke-miterlimit="10" stroke-linecap="round"/>
<path d="M101 99.1355L113.437 105.345C114.334 105.808 115.336 106.032 116.345 105.996C117.354 105.96 118.337 105.665 119.198 105.139C120.059 104.613 120.77 103.875 121.261 102.995C121.751 102.115 122.006 101.124 122 100.117V70.8829C122.006 69.8762 121.751 68.885 121.261 68.0052C120.77 67.1253 120.059 66.3867 119.198 65.8609C118.337 65.3351 117.354 65.0398 116.345 65.0038C115.336 64.9677 114.334 65.192 113.437 65.6549L101 71.8645" stroke="#159A9C" stroke-width="2" stroke-miterlimit="10" stroke-linecap="round"/>
<path d="M30.5 60C46.7924 60 60 46.7924 60 30.5C60 14.2076 46.7924 1 30.5 1C14.2076 1 1 14.2076 1 30.5C1 46.7924 14.2076 60 30.5 60Z" stroke="#159A9C" stroke-width="2" stroke-linecap="round" stroke-linejoin="round"/>
<path d="M30.5 44C37.9558 44 44 37.9558 44 30.5C44 23.0442 37.9558 17 30.5 17C23.0442 17 17 23.0442 17 30.5C17 37.9558 23.0442 44 30.5 44Z" stroke="#159A9C" stroke-width="2" stroke-linecap="round" stroke-linejoin="round"/>
<path d="M30 9C35.5695 9 40.911 11.2125 44.8492 15.1508C48.7875 19.089 51 24.4305 51 30" stroke="#159A9C" stroke-width="2" stroke-linecap="round" stroke-linejoin="round"/>
<path d="M30 52C24.4305 52 19.089 49.7875 15.1508 45.8492C11.2125 41.911 9 36.5695 9 31" stroke="#159A9C" stroke-width="2" stroke-linecap="round" stroke-linejoin="round"/>
<path d="M93.5 60C109.792 60 123 46.7924 123 30.5C123 14.2076 109.792 1 93.5 1C77.2076 1 64 14.2076 64 30.5C64 46.7924 77.2076 60 93.5 60Z" stroke="#159A9C" stroke-width="2" stroke-linecap="round" stroke-linejoin="round"/>
<path d="M93.5 44C100.956 44 107 37.9558 107 30.5C107 23.0442 100.956 17 93.5 17C86.0442 17 80 23.0442 80 30.5C80 37.9558 86.0442 44 93.5 44Z" stroke="#159A9C" stroke-width="2" stroke-linecap="round" stroke-linejoin="round"/>
<path d="M94 9C99.5695 9 104.911 11.2125 108.849 15.1508C112.787 19.089 115 24.4305 115 30" stroke="#159A9C" stroke-width="2" stroke-linecap="round" stroke-linejoin="round"/>
<path d="M94 52C88.4305 52 83.089 49.7875 79.1508 45.8492C75.2125 41.911 73 36.5695 73 31" stroke="#159A9C" stroke-width="2" stroke-linecap="round" stroke-linejoin="round"/>
<path d="M57 77H68" stroke="#159A9C" stroke-width="2" stroke-miterlimit="10" stroke-linecap="round"/>
<path d="M44 77H52" stroke="#159A9C" stroke-width="2" stroke-miterlimit="10" stroke-linecap="round"/>
<path d="M31 77H39" stroke="#159A9C" stroke-width="2" stroke-miterlimit="10" stroke-linecap="round"/>
<path d="M23 77H27" stroke="#159A9C" stroke-width="2" stroke-miterlimit="10" stroke-linecap="round"/>
<path d="M25 94C26.6569 94 28 92.6569 28 91C28 89.3431 26.6569 88 25 88C23.3431 88 22 89.3431 22 91C22 92.6569 23.3431 94 25 94Z" stroke="#159A9C" stroke-width="2" stroke-miterlimit="10" stroke-linecap="round"/>
<path d="M35 94C36.6569 94 38 92.6569 38 91C38 89.3431 36.6569 88 35 88C33.3431 88 32 89.3431 32 91C32 92.6569 33.3431 94 35 94Z" stroke="#159A9C" stroke-width="2" stroke-miterlimit="10" stroke-linecap="round"/>
</svg>
