<svg width="26" height="23" viewBox="0 0 26 23" fill="none" xmlns="http://www.w3.org/2000/svg">
<path fill-rule="evenodd" clip-rule="evenodd" d="M25.0302 3.16833C25.383 1.47728 23.6936 0.0719953 22.0557 0.694141L1.97876 8.32027C0.149695 9.01503 0.0681961 11.5296 1.84855 12.3374L6.22074 14.3213L8.30066 21.4782C8.40869 21.8499 8.70875 22.1377 9.08943 22.2347C9.47011 22.3317 9.87457 22.2234 10.1526 21.95L13.3566 18.8001L17.8446 22.1093C19.1473 23.0699 21.0237 22.3703 21.3509 20.802L25.0302 3.16833ZM2.77877 10.3559L22.8557 2.72981L19.1765 20.3635L13.9184 16.4864C13.4765 16.1606 12.8582 16.2038 12.4676 16.5878L11.0954 17.9369L11.5077 15.7076L19.5867 7.76489C19.9798 7.37835 20.0214 6.76542 19.6839 6.331C19.3464 5.89657 18.734 5.77471 18.2512 6.04593L7.09394 12.314L2.77877 10.3559ZM8.45433 14.0632L9.12735 16.379L9.38574 14.9818C9.42613 14.7635 9.53328 14.5624 9.69291 14.4055L12.1567 11.9832L8.45433 14.0632Z" fill="white"/>
</svg>
