<svg width="25" height="21" viewBox="0 0 25 21" fill="none" xmlns="http://www.w3.org/2000/svg">
<path fill-rule="evenodd" clip-rule="evenodd" d="M21.1276 1.55953C21.516 1.46772 21.7869 1.37746 22.0087 1.28266C22.3197 1.14979 22.5775 0.990628 22.9847 0.72257C23.327 0.497293 23.7657 0.477674 24.1268 0.671494C24.4879 0.865313 24.7131 1.24125 24.7131 1.65023C24.7131 2.85167 24.563 3.83637 24.2154 4.70297C23.9231 5.43188 23.5123 6.02392 23.0209 6.56278C22.8134 10.3008 21.7285 13.2364 20.0698 15.4604C18.3506 17.7654 16.0633 19.2416 13.6521 20.0682C11.248 20.8924 8.7078 21.0766 6.43214 20.7976C4.17139 20.5203 2.08163 19.7739 0.62503 18.644C0.226136 18.3346 0.0859183 17.7962 0.2834 17.3323C0.480881 16.8684 0.966628 16.595 1.46689 16.6663C2.90006 16.8706 4.27965 16.5456 5.41406 16.0809C5.19074 15.9598 4.98019 15.8286 4.78448 15.6935C3.75078 14.9798 2.91676 14.0109 2.54137 13.2622C2.38603 12.9523 2.38443 12.588 2.53704 12.2768C2.61577 12.1162 2.73089 11.9793 2.87067 11.8751C1.36138 10.6328 0.752013 8.91451 0.752013 7.76338C0.752013 7.42111 0.910129 7.09793 1.18064 6.88729C1.29437 6.79873 1.42265 6.73422 1.55788 6.69536C1.44494 6.36554 1.35729 6.0323 1.29049 5.7097C0.994301 4.27937 1.02059 2.66499 1.34252 1.38067C1.45269 0.941172 1.81928 0.612335 2.26913 0.549499C2.71898 0.486662 3.16206 0.702401 3.38905 1.0948C4.5899 3.1707 6.80488 4.43958 8.86631 5.19121C9.8355 5.54459 10.7331 5.76978 11.4059 5.90823C11.5511 4.55157 11.931 3.43276 12.5139 2.54414C13.283 1.37177 14.3556 0.678121 15.5076 0.36883C17.4943 -0.164567 19.6989 0.443129 21.1276 1.55953ZM11.0591 8.10637C10.2956 7.95346 9.24618 7.69658 8.10096 7.27902C6.58839 6.72751 4.83196 5.86754 3.36068 4.53547C3.38701 4.7806 3.42439 5.02364 3.47336 5.2601C3.71994 6.45087 4.17812 7.11775 4.59382 7.32505C5.10226 7.57858 5.33788 8.17312 5.14066 8.70482C4.87363 9.4247 4.17131 9.4838 3.53318 9.32468C4.04643 10.0921 4.96892 10.8573 6.50757 11.113C7.03826 11.2012 7.43 11.6549 7.43868 12.1914C7.44735 12.7279 7.07048 13.194 6.54292 13.2993L5.57282 13.4928C5.72122 13.6214 5.88192 13.7475 6.05322 13.8658C6.82991 14.4021 7.60975 14.6334 8.28299 14.4655C8.78723 14.3398 9.31166 14.5784 9.54699 15.0406C9.78232 15.5028 9.66605 16.0658 9.26676 16.3977C8.54913 16.9934 7.71104 17.4714 6.87109 17.8682C6.47677 18.0544 6.0361 18.2383 5.55749 18.4001C5.92559 18.4784 6.3086 18.5427 6.70415 18.5912C8.67741 18.8332 10.8737 18.6701 12.9275 17.966C14.9742 17.2644 16.8661 16.0313 18.2813 14.1337C19.6947 12.2386 20.681 9.61604 20.8132 6.05509C20.8236 5.77473 20.94 5.50867 21.1389 5.31029C21.64 4.81051 22.0541 4.23767 22.2578 3.55581C21.9013 3.66665 21.4999 3.76259 21.0217 3.85376C20.659 3.92291 20.2855 3.8084 20.0244 3.54798C19.1724 2.69823 17.4873 2.13942 16.087 2.51537C15.428 2.6923 14.829 3.07535 14.3791 3.76116C13.9198 4.46137 13.5684 5.55218 13.5684 7.20768C13.5684 7.5222 13.4348 7.822 13.2007 8.03274C12.6457 8.53238 11.7116 8.23705 11.0591 8.10637Z" fill="white"/>
</svg>
