<svg width="113" height="124" viewBox="0 0 113 124" fill="none" xmlns="http://www.w3.org/2000/svg">
<path fill-rule="evenodd" clip-rule="evenodd" d="M56.5 124C87.7041 124 113 96.2417 113 62C113 27.7583 87.7041 0 56.5 0C25.2959 0 0 27.7583 0 62C0 96.2417 25.2959 124 56.5 124Z" fill="black"/>
<path fill-rule="evenodd" clip-rule="evenodd" d="M68 48.8154L37.845 31C36.2734 31 35 32.3738 35 34.0693V89.9307C35 91.6262 36.2734 93 37.845 93C37.845 93 54.3807 83.1711 68 75.1109V48.8154Z" fill="white"/>
<path fill-rule="evenodd" clip-rule="evenodd" d="M73.2978 52L84.7391 58.7108C89.8261 61.653 84.7391 64.1581 84.7391 64.1581C84.7391 63.9881 37.2712 92 37.2712 92C37.1797 92 37.0893 91.9953 37 91.9862L73.2978 52Z" fill="#CCCCCC"/>
<path fill-rule="evenodd" clip-rule="evenodd" d="M38 31L84.7722 58.9521C89.7848 61.906 84.7722 64.4212 84.7722 64.4212C84.7722 64.367 80.0649 67.1603 73.637 71L38 31Z" fill="#CCCCCC"/>
<path fill-rule="evenodd" clip-rule="evenodd" d="M73.4069 52L84.747 58.791C89.8162 61.7844 84.747 64.3332 84.747 64.3332C84.747 64.2783 79.9866 67.109 73.4861 71L65 61.4554L73.4069 52Z" fill="white"/>
</svg>
